# xmcd CD database file
#
# Track frame offsets:
#	150
#	9976
#	23347
#	38015
#	53433
#	71356
#	84436
#	100624
#	112025
#	129382
#	157436
#	173961
#	189365
#	201718
#	213740
#	231750
#	250831
#
# Disc length: 3624 seconds
#
# Revision: 0
# Processed by: cddbd v1.5.2PL0 Copyright (c) Steve Scherf et al.
# Submitted via: CDex 1.51
#
DISCID=de0e2611
DTITLE=Ike and Tine Turner - Ike and Tine Turner
DYEAR=1900
DGENRE=Blues
TTITLE0=Boodbye So Long
TTITLE1=Nutbush City Limits
TTITLE2=Buaby, Baby Get In On
TTITLE3=Proud Mary
TTITLE4=River Deep Mountain High
TTITLE5=A Fool In Love
TTITLE6=I Can't Stop Loving You
TTITLE7=Poor Fool
TTITLE8=Ain't Nobody's Business
TTITLE9=All I Can do Is Cry
TTITLE10=Come Toether
TTITLE11=Do The Chicken
TTITLE12=Money
TTITLE13=Tra La La La La
TTITLE14=Ony Women Bleed
TTITLE15=Something
TTITLE16=Knock On Wood
EXTD=
EXTT0=
EXTT1=
EXTT2=
EXTT3=
EXTT4=
EXTT5=
EXTT6=
EXTT7=
EXTT8=
EXTT9=
EXTT10=
EXTT11=
EXTT12=
EXTT13=
EXTT14=
EXTT15=
EXTT16=
PLAYORDER=
